# xmcd CD database file
#
# Track frame offsets:
#	183
#	15368
#	27690
#	41075
#	51015
#	64798
#	78390
#	87150
#	96688
#	106713
#	116938
#	128303
#	138968
#	153313
#	171043
#	186738
#	207218
#	224380
#	238368
#	249038
#	272025
#	283618
#	294535
#	312003
#
# Disc length: 4390 seconds
#
# Revision: 0
# Processed by: cddbd v1.4PL0 Copyright (c) Steve Scherf et al.
# Submitted via: Feurio! 1.65 - http://www.feurio.com
#
DISCID=5b112418
DTITLE=Baldry, Long John  - Long John's Blues - Looking At Long John
DYEAR=1900
DGENRE=
TTITLE0=You've Lost That Lovin' Feelin'
TTITLE1=Only A Fool Breaks His Own Heart
TTITLE2=Make It Easy On Yourself
TTITLE3=Let Him Go (And Let Me Love You)
TTITLE4=The Drifter
TTITLE5=Cry Me A River
TTITLE6=Stop Her On Sight (S.O.S)
TTITLE7=Turn On Your Lovelight
TTITLE8=I Love Paris
TTITLE9=Keep On Running
TTITLE10=Ain't Nothing You Can Do
TTITLE11=Bad Luck Soul
TTITLE12=Got My Mojo Working
TTITLE13=Gee Baby Ain't I Good To You
TTITLE14=Roll 'em Pete
TTITLE15=You're Breaking My Heart
TTITLE16=Hoochie Coochie
TTITLE17=Everyday (I Have The Blues)
TTITLE18=Dimples
TTITLE19=Five Long Years
TTITLE20=My Babe
TTITLE21=Times Are Getting Tougher Than Tough
TTITLE22=Goin' Down Slow
TTITLE23=Rock The Joint
EXTD=
EXTT0=
EXTT1=
EXTT2=
EXTT3=
EXTT4=
EXTT5=
EXTT6=
EXTT7=
EXTT8=
EXTT9=
EXTT10=
EXTT11=
EXTT12=
EXTT13=
EXTT14=
EXTT15=
EXTT16=
EXTT17=
EXTT18=
EXTT19=
EXTT20=
EXTT21=
EXTT22=
EXTT23=
PLAYORDER=
